Coordinates
version=1
nRows=9
nColumns=63
inDegrees=yes

Units are S.I. units (second, meters, Newtons, ...)
If the header above contains a line with 'inDegrees', this indicates whether rotational values are in degrees (yes) or radians (no).

endheader
time	pelvis_tilt	pelvis_list	pelvis_rotation	pelvis_tx	pelvis_ty	pelvis_tz	hip_flexion_r	hip_adduction_r	hip_rotation_r	knee_angle_r	knee_angle_r_beta	ankle_angle_r	subtalar_angle_r	mtp_angle_r	hip_flexion_l	hip_adduction_l	hip_rotation_l	knee_angle_l	knee_angle_l_beta	ankle_angle_l	subtalar_angle_l	mtp_angle_l	L5_S1_Flex_Ext	L5_S1_Lat_Bending	L5_S1_axial_rotation	L4_L5_Flex_Ext	L4_L5_Lat_Bending	L4_L5_axial_rotation	L3_L4_Flex_Ext	L3_L4_Lat_Bending	L3_L4_axial_rotation	L2_L3_Flex_Ext	L2_L3_Lat_Bending	L2_L3_axial_rotation	L1_L2_Flex_Ext	L1_L2_Lat_Bending	L1_L2_axial_rotation	L1_T12_Flex_Ext	L1_T12_Lat_Bending	L1_T12_axial_rotation	Abs_r3	Abs_r2	Abs_r1	Abs_t1	Abs_t2	neck_flexion	neck_bending	neck_rotation	arm_flex_r	arm_add_r	arm_rot_r	elbow_flex_r	pro_sup_r	wrist_flex_r	wrist_dev_r	arm_flex_l	arm_add_l	arm_rot_l	elbow_flex_l	pro_sup_l	wrist_flex_l	wrist_dev_l
1.127660	7.305835	-9.083572	89.005671	0.442311	0.721390	0.781673	16.536739	5.590137	12.005697	4.358978	0.076079	29.042612	-14.280864	0.000000	15.455303	-2.682496	5.943306	5.858469	0.102250	28.083121	-4.961681	0.000000	-0.080945	0.321755	1.927219	-0.150322	0.427934	2.047670	-0.132984	0.782314	2.047670	-0.092512	0.782314	1.686317	-0.075165	0.656122	1.565865	-0.046252	0.498398	1.445414	-0.578179	3.639752	10.718613	0.000000	0.000000	10.890922	-11.112269	24.782711	1.557115	-22.963619	46.835366	33.102864	85.257314	-2.440416	4.967020	10.689180	-19.134962	48.565220	25.428442	87.137078	-23.832297	1.526742
1.148936	7.420384	-8.986816	89.298966	0.441916	0.721967	0.781281	16.940834	5.732710	11.864765	5.292918	0.092379	29.468505	-14.564700	0.000000	15.057863	-2.771173	5.498762	5.224232	0.091180	27.885471	-4.226128	0.000000	-0.086876	0.336989	1.943509	-0.161338	0.448196	2.064978	-0.142729	0.819355	2.064978	-0.099291	0.819355	1.700570	-0.080673	0.687188	1.579101	-0.049641	0.521996	1.457631	-0.620549	3.812089	10.809211	0.000000	0.000000	10.461469	-11.392723	25.142207	1.179448	-23.000908	45.367978	33.664154	85.200467	-1.901663	5.419020	10.916154	-18.833633	48.754057	24.883877	86.740015	-24.118749	1.113086
1.170213	7.559264	-8.809626	89.691846	0.441412	0.722662	0.780631	17.282477	5.873553	11.559876	6.325286	0.110397	29.923838	-14.840221	0.000000	14.614219	-2.861507	5.337079	4.657099	0.081282	27.674477	-3.635093	0.000000	-0.096488	0.354882	1.949302	-0.179188	0.471993	2.071134	-0.158520	0.862860	2.071134	-0.110276	0.862860	1.705640	-0.089599	0.723675	1.583808	-0.055133	0.549712	1.461977	-0.689204	4.014496	10.841435	0.000000	0.000000	9.979038	-11.576609	25.388348	0.799141	-23.029559	43.804377	34.319629	85.000835	-1.282157	5.840859	11.129035	-18.471928	48.779856	24.414243	86.124089	-24.270490	0.793339
1.191489	7.733168	-8.552780	90.234696	0.440684	0.723477	0.779798	17.549552	6.009136	11.030417	7.426711	0.129621	30.372354	-15.121280	0.000000	14.137195	-2.951819	5.510270	4.159137	0.072591	27.449483	-3.185164	0.000000	-0.109091	0.377692	1.936008	-0.202592	0.502330	2.057009	-0.179225	0.918320	2.057009	-0.124680	0.918320	1.694007	-0.101301	0.770189	1.573007	-0.062334	0.585044	1.452006	-0.779223	4.272524	10.767498	0.000000	0.000000	9.509302	-11.684712	25.484514	0.402600	-23.059436	42.075869	35.128215	84.593901	-0.680217	6.175461	11.344391	-18.033022	48.690615	24.089966	85.431396	-24.194651	0.691959
1.212766	7.904772	-8.200668	90.862412	0.439833	0.724487	0.778799	17.703702	6.115511	10.331019	8.555707	0.149325	30.780846	-15.375218	0.000000	13.601271	-3.040883	5.891540	3.728765	0.065079	27.247163	-2.797303	0.000000	-0.125976	0.402345	1.910097	-0.233950	0.535119	2.029479	-0.206966	0.978261	2.029479	-0.143978	0.978261	1.671335	-0.116981	0.820462	1.551954	-0.071983	0.623232	1.432573	-0.899835	4.551405	10.623389	0.000000	0.000000	9.061963	-11.721744	25.499980	0.058383	-23.072524	40.380129	36.067286	84.081301	-0.393704	6.319240	11.636698	-17.555759	48.852293	23.889512	84.689946	-24.041323	0.485250
1.234043	8.078079	-7.794034	91.529252	0.438877	0.725606	0.777634	17.773792	6.199445	9.475773	9.687030	0.169071	31.136995	-15.574845	0.000000	13.039515	-3.128682	6.463293	3.365253	0.058735	27.066560	-2.536774	0.000000	-0.140040	0.429728	1.882499	-0.260069	0.571538	2.000155	-0.230072	1.044841	2.000155	-0.160052	1.044841	1.647186	-0.130041	0.876301	1.529530	-0.080019	0.665649	1.411874	-1.000294	4.861169	10.469894	0.000000	0.000000	8.680888	-11.691331	25.458787	-0.296619	-23.064097	38.551039	37.167272	83.265436	-0.328208	6.173623	11.950613	-17.017181	49.113139	23.991232	84.191379	-23.967508	0.274888
1.255319	8.256025	-7.332591	92.298584	0.437748	0.726819	0.776424	17.741768	6.255047	8.439402	10.775101	0.188061	31.419409	-15.733432	0.000000	12.461264	-3.210789	7.259640	3.063570	0.053469	26.889184	-2.403343	0.000000	-0.152558	0.460463	1.829967	-0.283316	0.612416	1.944340	-0.250638	1.119570	1.944340	-0.174359	1.119570	1.601221	-0.141666	0.938976	1.486849	-0.087172	0.713257	1.372476	-1.089710	5.208849	10.177730	0.000000	0.000000	8.452577	-11.614130	25.415122	-0.538736	-23.025145	36.809779	38.406482	82.450757	-0.661028	5.892266	12.261747	-16.421514	49.320750	24.462220	83.876830	-23.759616	-0.031174
1.276596	8.418222	-6.836818	93.083362	0.436582	0.728078	0.775233	17.621994	6.281807	7.369095	11.790708	0.205787	31.613564	-15.900335	0.000000	11.868741	-3.293957	8.189796	2.804207	0.048943	26.730834	-2.400082	0.000000	-0.160897	0.491581	1.779280	-0.298801	0.653802	1.890485	-0.264337	1.195229	1.890485	-0.183889	1.195229	1.556870	-0.149409	1.002431	1.445665	-0.091936	0.761458	1.334460	-1.149268	5.560858	9.895823	0.000000	0.000000	8.361215	-11.521597	25.287105	-0.725707	-22.927256	35.135462	39.758688	81.492426	-1.394946	5.457920	12.629468	-15.760326	49.652124	25.263106	83.666692	-23.271307	-0.438076
1.297872	8.577932	-6.314407	93.922621	0.435325	0.729353	0.774144	17.411238	6.285847	6.218786	12.689808	0.221479	31.730574	-16.039577	0.000000	11.279696	-3.372266	9.286654	2.590515	0.045213	26.550786	-2.591326	0.000000	-0.165179	0.523601	1.723784	-0.306753	0.696390	1.831520	-0.271372	1.273085	1.831520	-0.188783	1.273085	1.508311	-0.153385	1.067728	1.400574	-0.094383	0.811059	1.292838	-1.179854	5.923084	9.587167	0.000000	0.000000	8.364022	-11.412271	25.022857	-0.845236	-22.779700	33.637845	41.191347	80.582639	-2.430093	4.934865	13.034243	-15.022964	50.048958	26.420276	83.183759	-22.389219	-0.905585
